<svg preserveAspectRatio="none" width="100%" height="100%" overflow="visible" style="display: block;" viewBox="0 0 17.0833 17.9167" fill="none" xmlns="http://www.w3.org/2000/svg">
<g id="elements">
<path id="Icon" fill-rule="evenodd" clip-rule="evenodd" d="M0 0.625C0 0.279822 0.279822 0 0.625 0H1.40704C2.45861 0 3.37524 0.71568 3.63028 1.73585L3.63317 1.74739L4.05362 3.75001H14.7034L14.7482 3.75C15.168 3.74994 15.5544 3.74989 15.8631 3.79889C16.2088 3.85377 16.5691 3.98603 16.824 4.33681C17.0694 4.67446 17.1007 5.05626 17.0766 5.40582C17.054 5.73513 16.9725 6.13958 16.8797 6.60027L16.8719 6.63925C16.534 8.31777 16.2014 9.90059 15.4194 11.042C15.0142 11.6334 14.487 12.1125 13.7857 12.438C13.0915 12.7601 12.2593 12.9167 11.261 12.9167H5.59374C4.91034 12.9192 4.30909 13.4417 4.18859 14.1667H7.29167H13.125C14.1605 14.1667 15 15.0061 15 16.0417C15 17.0772 14.1605 17.9167 13.125 17.9167C12.0895 17.9167 11.25 17.0772 11.25 16.0417C11.25 15.8225 11.2876 15.6122 11.3567 15.4167H9.05998C9.12907 15.6122 9.16667 15.8225 9.16667 16.0417C9.16667 17.0772 8.3272 17.9167 7.29167 17.9167C6.25613 17.9167 5.41667 17.0772 5.41667 16.0417C5.41667 15.8225 5.45426 15.6122 5.52336 15.4167H3.88452C3.32619 15.4167 2.91667 14.9527 2.91667 14.4345C2.91667 13.3277 3.55386 12.3512 4.49009 11.9125L2.94995 4.57676C2.93397 4.52988 2.9234 4.48049 2.919 4.42935L2.415 2.02884C2.29556 1.57055 1.88152 1.25 1.40704 1.25H0.625C0.279822 1.25 0 0.970178 0 0.625ZM13.125 15.4167C12.7798 15.4167 12.5 15.6965 12.5 16.0417C12.5 16.3868 12.7798 16.6667 13.125 16.6667C13.4702 16.6667 13.75 16.3868 13.75 16.0417C13.75 15.6965 13.4702 15.4167 13.125 15.4167ZM6.66667 16.0417C6.66667 15.6965 6.94649 15.4167 7.29167 15.4167C7.63685 15.4167 7.91667 15.6965 7.91667 16.0417C7.91667 16.3868 7.63685 16.6667 7.29167 16.6667C6.94649 16.6667 6.66667 16.3868 6.66667 16.0417ZM5.94516 11.6667L5.94167 11.6667H5.71574L4.31606 5.00001H14.7034C15.1834 5.00001 15.4683 5.00187 15.6671 5.03343C15.7576 5.04781 15.7972 5.06409 15.8106 5.07091L15.8133 5.07237C15.815 5.07464 15.8199 5.08278 15.8247 5.10758C15.8318 5.14336 15.8373 5.20777 15.8296 5.32C15.8132 5.55789 15.7494 5.88113 15.6465 6.39256C15.2946 8.14052 14.9979 9.44558 14.3882 10.3355C14.0975 10.7597 13.7382 11.082 13.2595 11.3041C12.7738 11.5296 12.1326 11.6667 11.261 11.6667H5.94516Z" fill="var(--fill-0, #393939)"/>
</g>
</svg>
