<svg preserveAspectRatio="none" width="100%" height="100%" overflow="visible" style="display: block;" viewBox="0 0 14.5833 12.9167" fill="none" xmlns="http://www.w3.org/2000/svg">
<g id="elements">
<path id="Icon" fill-rule="evenodd" clip-rule="evenodd" d="M0 0.625C0 0.279822 0.279822 0 0.625 0H13.9583C14.3035 0 14.5833 0.279823 14.5833 0.625001C14.5833 0.970179 14.3035 1.25 13.9583 1.25L0.625 1.25C0.279822 1.25 0 0.970178 0 0.625ZM0 6.45833C0 6.11316 0.279822 5.83333 0.625 5.83333L13.9583 5.83333C14.3035 5.83333 14.5833 6.11316 14.5833 6.45833C14.5833 6.80351 14.3035 7.08333 13.9583 7.08333L0.625 7.08333C0.279822 7.08333 0 6.80351 0 6.45833ZM0.625 11.6667C0.279822 11.6667 0 11.9465 0 12.2917C0 12.6368 0.279822 12.9167 0.625 12.9167L13.9583 12.9167C14.3035 12.9167 14.5833 12.6368 14.5833 12.2917C14.5833 11.9465 14.3035 11.6667 13.9583 11.6667L0.625 11.6667Z" fill="var(--fill-0, #393939)"/>
</g>
</svg>
