<svg preserveAspectRatio="none" width="100%" height="100%" overflow="visible" style="display: block;" viewBox="0 0 344.124 240" fill="none" xmlns="http://www.w3.org/2000/svg">
<g id="Group" opacity="0.2">
<path id="Vector" d="M0 118.275C0 118.275 28.6605 213.402 160.131 199.459C160.131 199.459 87.822 177.44 67.9043 116.768C67.9043 116.768 28.6605 108.585 0 118.275Z" fill="var(--fill-0, white)"/>
<g id="Group_2">
<path id="Vector_2" d="M170.911 192.031C170.911 192.031 238.881 128.721 202.924 36.9312C202.924 36.9312 197.797 89.1517 185.899 105.787C174.001 122.422 154.806 107.133 152.965 92.7587C151.125 78.4384 158.093 39.946 187.279 7.08827e-05C187.279 7.08827e-05 79.6052 78.5999 170.911 192.031Z" fill="var(--fill-0, white)"/>
<path id="Vector_3" d="M161.773 77.7395C161.773 77.7395 164.468 61.4812 176.564 62.5579C193.195 64.0653 188.593 94.9131 173.737 95.5591C166.572 95.5591 159.538 88.1836 161.773 77.6857V77.7395Z" fill="var(--fill-0, white)"/>
</g>
<g id="Group_3">
<path id="Vector_4" d="M142.25 157.197C119.112 134.156 94.461 123.012 74.2146 117.682C64.4858 87.211 73.4915 61.1546 73.4915 61.1546C111.815 72.137 127.328 86.6726 127.328 86.6726C124.831 112.406 132.916 137.601 142.185 157.197H142.25Z" fill="var(--fill-0, white)"/>
<path id="Vector_5" d="M165.059 194.504C106.621 175.608 82.956 144.868 74.2132 117.681C94.4596 122.957 119.176 134.155 142.249 157.196C152.701 179.215 164.665 194.074 165.059 194.504Z" fill="var(--fill-0, white)"/>
</g>
<path id="Vector_6" d="M344.124 118.275C344.124 118.275 315.463 213.402 183.993 199.459C183.993 199.459 256.302 177.44 276.219 116.768C276.219 116.768 315.463 108.585 344.124 118.275Z" fill="var(--fill-0, white)"/>
<path id="Vector_7" d="M268.791 118.815C224.551 130.605 208.578 154.401 207.526 156.016C216.729 137.496 224.551 112.678 223.894 82.6378C223.894 82.6378 254.461 64.3876 270.369 62.5034C270.369 62.5034 279.111 88.3444 268.791 118.815Z" fill="var(--fill-0, white)"/>
<path id="Vector_8" d="M268.79 118.817C259.785 145.196 236.449 175.075 180.508 194.509C180.508 194.509 195.167 180.943 207.525 156.071C207.525 156.071 207.525 156.071 207.525 155.963C208.577 154.348 224.616 130.553 268.79 118.763V118.817Z" fill="var(--fill-0, white)"/>
<path id="Vector_9" d="M47.657 239.999C47.657 239.999 74.2139 219.219 171.568 217.281C259.127 215.558 297.713 239.999 297.713 239.999C297.713 239.999 273.325 207.86 172.685 206.568C82.8252 205.437 47.657 239.999 47.657 239.999Z" fill="var(--fill-0, white)"/>
</g>
</svg>
